<?xml version="1.0" encoding="UTF-8"?>
<svg version="1.1" xmlns="http://www.w3.org/2000/svg" width="500" height="500">
<path d="M0 0 C3.73597841 0.00314558 7.47115078 -0.02033879 11.20703125 -0.0456543 C33.46236248 -0.10396729 55.77554029 1.17789304 77.26953125 7.31567383 C78.30335938 7.60055664 79.3371875 7.88543945 80.40234375 8.17895508 C91.84983457 11.64372897 103.50380607 17.39828516 113.26953125 24.31567383 C113.26953125 24.97567383 113.26953125 25.63567383 113.26953125 26.31567383 C113.99398438 26.55157227 114.7184375 26.7874707 115.46484375 27.03051758 C123.75891141 30.83100262 130.02599035 40.05538642 135.26953125 47.31567383 C135.70394531 47.90606445 136.13835937 48.49645508 136.5859375 49.10473633 C138.45882383 51.75418529 139.26953125 52.99286875 139.26953125 56.31567383 C139.92953125 56.31567383 140.58953125 56.31567383 141.26953125 56.31567383 C148.68685373 71.88652945 153.45137581 86.9746717 156.51953125 103.94067383 C156.76461426 105.28005005 156.76461426 105.28005005 157.01464844 106.64648438 C159.50672078 121.38238974 159.43150346 136.2885468 159.39990234 151.18725586 C159.39455153 154.17933242 159.39987659 157.17125809 159.40625 160.16333008 C159.41368352 179.65904185 159.16855862 199.1630712 154.11328125 218.12036133 C153.31351324 221.1491124 152.59781935 224.1912601 151.88745117 227.24194336 C146.70901992 249.02777548 135.35779294 270.52561294 117.26953125 284.31567383 C116.60953125 284.31567383 115.94953125 284.31567383 115.26953125 284.31567383 C115.26953125 284.97567383 115.26953125 285.63567383 115.26953125 286.31567383 C93.93112792 301.46660911 70.35826459 307.56576637 44.78564453 310.97436523 C42.93891799 311.2248721 41.0982673 311.5212822 39.26269531 311.84350586 C33.72893818 312.63051879 28.13656399 312.49864089 22.55859375 312.51879883 C21.31822357 312.5244989 20.07785339 312.53019897 18.79989624 312.53607178 C16.16901496 312.54550641 13.53812193 312.55204964 10.90722656 312.5559082 C6.97053295 312.56235925 3.03422696 312.59647522 -0.90234375 312.62817383 C-37.62228703 312.78067983 -81.26548685 309.40857475 -109.953125 283.29223633 C-111.13336439 282.10472647 -112.2950799 280.89810096 -113.42578125 279.66333008 C-114.71007046 278.1877258 -114.71007046 278.1877258 -116.73046875 277.31567383 C-116.73046875 276.65567383 -116.73046875 275.99567383 -116.73046875 275.31567383 C-117.39046875 275.31567383 -118.05046875 275.31567383 -118.73046875 275.31567383 C-143.16527459 246.68499224 -150.78181368 207.38363823 -150.93359375 170.62426758 C-150.93929382 169.52131851 -150.9449939 168.41836945 -150.9508667 167.28199768 C-150.96026905 164.95151716 -150.9668316 162.62102362 -150.97070312 160.29052734 C-150.98029825 156.81493155 -151.01132201 153.33995665 -151.04296875 149.86450195 C-151.21823757 112.39126187 -145.92836443 75.91675841 -124.73046875 44.31567383 C-124.07046875 43.32567383 -123.41046875 42.33567383 -122.73046875 41.31567383 C-122.07046875 41.31567383 -121.41046875 41.31567383 -120.73046875 41.31567383 C-120.49328125 40.75364258 -120.25609375 40.19161133 -120.01171875 39.61254883 C-118.44099178 36.79673341 -116.51575411 34.83611967 -114.23046875 32.56567383 C-113.43640625 31.76645508 -112.64234375 30.96723633 -111.82421875 30.14379883 C-109.73046875 28.31567383 -109.73046875 28.31567383 -107.73046875 28.31567383 C-107.73046875 27.65567383 -107.73046875 26.99567383 -107.73046875 26.31567383 C-105.32400803 24.6097136 -102.93064583 23.03880793 -100.41796875 21.50317383 C-99.31255737 20.82496582 -99.31255737 20.82496582 -98.18481445 20.13305664 C-81.36465128 9.95683037 -63.08599785 4.92631524 -43.73046875 2.31567383 C-43.0548439 2.22241821 -42.37921906 2.1291626 -41.68312073 2.03308105 C-27.80507484 0.17421521 -13.98691234 -0.02450978 0 0 Z " fill="#6096AB" transform="translate(237.73046875,94.684326171875)"/>
<path d="M0 0 C6.54943743 -0.12991883 12.52048687 0.15570728 18.78515625 2.12109375 C19.64238281 2.38921875 20.49960937 2.65734375 21.3828125 2.93359375 C27.28649677 5.02031573 30.16279223 7.04978413 33.78515625 12.12109375 C34.96078125 13.29671875 34.96078125 13.29671875 36.16015625 14.49609375 C46.40054087 24.73647837 46.40054087 24.73647837 47.78515625 30.12109375 C47.78515625 31.11109375 47.78515625 32.10109375 47.78515625 33.12109375 C48.44515625 33.12109375 49.10515625 33.12109375 49.78515625 33.12109375 C50.66602774 39.19558358 50.9680575 45.11136184 50.97265625 51.24609375 C50.98490234 52.11363281 50.99714844 52.98117188 51.00976562 53.875 C51.02097631 58.78528136 50.39035116 62.44774148 48.78515625 67.12109375 C48.88605622 70.65259273 49.47229863 71.79341955 51.9296875 74.3671875 C52.81011719 75.09035156 53.69054687 75.81351562 54.59765625 76.55859375 C61.34321026 82.37339564 67.11720677 90.133599 68.78515625 99.12109375 C69.65400661 112.2373924 68.14518015 122.1865832 59.95703125 132.67578125 C55.05438751 138.19566431 49.65304118 141.47742871 42.86328125 144.26171875 C40.78019864 145.07717852 40.78019864 145.07717852 38.89453125 146.16796875 C33.28588944 148.70224394 26.93794185 148.28592434 20.90625 148.31396484 C19.43638641 148.32623108 19.43638641 148.32623108 17.93682861 148.33874512 C14.69877714 148.36351595 11.46076967 148.38010484 8.22265625 148.39453125 C6.55101913 148.40251677 6.55101913 148.40251677 4.84561157 148.4106636 C-1.06711131 148.43737471 -6.97981336 148.45674568 -12.89257812 148.47119141 C-17.74563764 148.48445555 -22.59826919 148.51217151 -27.45117188 148.55322266 C-33.34559092 148.60306728 -39.23962612 148.62737648 -45.13424683 148.63441849 C-47.36013993 148.64105252 -49.58602716 148.65606364 -51.8117981 148.6803093 C-75.54683052 148.92385422 -96.60824367 146.39261762 -114.5703125 129.640625 C-116.34084491 127.94729473 -116.34084491 127.94729473 -119.02734375 126.05859375 C-121.68066668 123.70850773 -122.72288921 121.30845119 -124.21484375 118.12109375 C-124.70984375 117.63640625 -125.20484375 117.15171875 -125.71484375 116.65234375 C-127.73214529 114.5930151 -128.39324034 112.25039721 -129.32421875 109.56640625 C-130.73880264 105.68250487 -132.45529966 101.92673116 -134.12890625 98.1484375 C-139.9203237 82.00329893 -136.28618734 64.09868675 -129.3828125 49.0390625 C-125.94244002 41.93888407 -122.16882065 35.31633334 -115.21484375 31.12109375 C-114.55484375 31.12109375 -113.89484375 31.12109375 -113.21484375 31.12109375 C-112.94671875 30.35796875 -112.67859375 29.59484375 -112.40234375 28.80859375 C-111.2165685 26.12499712 -110.53336515 24.8599848 -108.21484375 23.12109375 C-106.22429499 22.42671628 -104.2222899 21.76499157 -102.21484375 21.12109375 C-100.99751876 20.51379291 -99.78971502 19.88718921 -98.58984375 19.24609375 C-93.35428308 16.55294546 -87.81680315 14.88193217 -82.21484375 13.12109375 C-80.48234375 12.50234375 -80.48234375 12.50234375 -78.71484375 11.87109375 C-65.57179742 9.05472668 -51.60400119 12.24104787 -39.484375 17.546875 C-37.24225972 18.32034619 -37.24225972 18.32034619 -35.16015625 17.5078125 C-31.97766014 15.23916567 -29.76961248 12.22395168 -27.3125 9.21484375 C-25.02039383 6.92700593 -23.24244748 6.17059856 -20.21484375 5.12109375 C-19.16296875 4.44046875 -18.11109375 3.75984375 -17.02734375 3.05859375 C-11.67329561 -0.03869431 -6.03432533 0.22729536 0 0 Z " fill="#F5F6F6" transform="translate(273.21484375,178.87890625)"/>
<path d="M0 0 C6.54943743 -0.12991883 12.52048687 0.15570728 18.78515625 2.12109375 C19.64238281 2.38921875 20.49960937 2.65734375 21.3828125 2.93359375 C27.28649677 5.02031573 30.16279223 7.04978413 33.78515625 12.12109375 C34.96078125 13.29671875 34.96078125 13.29671875 36.16015625 14.49609375 C46.40054087 24.73647837 46.40054087 24.73647837 47.78515625 30.12109375 C47.78515625 31.11109375 47.78515625 32.10109375 47.78515625 33.12109375 C48.44515625 33.12109375 49.10515625 33.12109375 49.78515625 33.12109375 C51.57063442 45.59064293 52.63849146 59.27284675 47.78515625 71.12109375 C47.30256348 70.76958252 46.8199707 70.41807129 46.32275391 70.0559082 C37.29177632 64.49710126 27.40310999 65.33827044 17.16015625 65.30859375 C15.27861724 65.28541889 13.39710393 65.26004741 11.515625 65.23242188 C6.93870605 65.1699567 2.36246316 65.13731631 -2.21484375 65.12109375 C-2.70173926 63.85041725 -3.18601397 62.57873632 -3.66918945 61.30664062 C-3.93915237 60.59858276 -4.2091153 59.8905249 -4.48725891 59.16101074 C-5.37300928 56.67764779 -5.93418901 54.21395078 -6.40234375 51.62109375 C-6.64017578 50.3371875 -6.64017578 50.3371875 -6.8828125 49.02734375 C-7.04716797 48.08375 -7.04716797 48.08375 -7.21484375 47.12109375 C-7.87484375 47.12109375 -8.53484375 47.12109375 -9.21484375 47.12109375 C-11.75192852 44.29940011 -13.8368408 41.20110219 -15.08984375 37.62109375 C-18.02653011 31.09512405 -24.03025237 27.32404004 -30.19921875 24.1640625 C-32.21484375 23.12109375 -32.21484375 23.12109375 -35.21484375 21.12109375 C-34.65451789 17.1054251 -32.63287299 14.95566261 -29.96484375 11.99609375 C-28.81242188 10.69285156 -28.81242188 10.69285156 -27.63671875 9.36328125 C-25.16977884 7.07937236 -23.35451843 6.19828295 -20.21484375 5.12109375 C-19.16296875 4.44046875 -18.11109375 3.75984375 -17.02734375 3.05859375 C-11.67329561 -0.03869431 -6.03432533 0.22729536 0 0 Z " fill="#FFD06F" transform="translate(273.21484375,178.87890625)"/>
<path d="M0 0 C1.9765625 1.16015625 1.9765625 1.16015625 4 3 C5.78299085 12.65534875 3.80131248 26.32490131 -1 35 C-3.1138578 37.90655448 -5.46351069 40.45844784 -8 43 C-8.98419922 44.00160156 -8.98419922 44.00160156 -9.98828125 45.0234375 C-14.27743627 49.10438111 -16.95514486 50.54378452 -23 51 C-24.69719127 51.94726954 -26.36935236 52.94228261 -28 54 C-31.00878682 54.95745344 -33.75298397 55.12948971 -36.90019226 55.14044189 C-37.88555466 55.14615204 -38.87091705 55.15186218 -39.88613892 55.15774536 C-41.49843887 55.15942215 -41.49843887 55.15942215 -43.14331055 55.16113281 C-44.28035934 55.16609772 -45.41740814 55.17106262 -46.58891296 55.17617798 C-50.35485437 55.19079604 -54.12075362 55.19760155 -57.88671875 55.203125 C-60.50503033 55.20887737 -63.12334189 55.21463509 -65.74165344 55.22039795 C-70.53311647 55.22996566 -75.32457043 55.23586446 -80.11604184 55.2388947 C-87.15176947 55.2433695 -94.18730225 55.26089266 -101.22297066 55.2898953 C-107.33011913 55.31418979 -113.43718769 55.32184262 -119.5443821 55.32357025 C-122.13545606 55.32659258 -124.72652928 55.33460687 -127.31757164 55.34775543 C-130.94843553 55.36486327 -134.57882864 55.3629236 -138.2097168 55.35644531 C-139.27446228 55.3656601 -140.33920776 55.37487488 -141.43621826 55.3843689 C-148.28420429 55.34621087 -155.8982434 55.1017566 -161 50 C-162.54505669 49.48592264 -164.11168987 49.03524154 -165.6875 48.625 C-170.30644449 47.31775156 -173.94898306 45.55390198 -178 43 C-178 42.34 -178 41.68 -178 41 C-178.66 41 -179.32 41 -180 41 C-180 40.34 -180 39.68 -180 39 C-181.65 38.34 -183.3 37.68 -185 37 C-185 36.34 -185 35.68 -185 35 C-185.86625 34.7215625 -185.86625 34.7215625 -186.75 34.4375 C-190.14462336 32.26871285 -191.20497313 29.59005374 -193 26 C-193 25.34 -193 24.68 -193 24 C-193.66 24 -194.32 24 -195 24 C-198.8428605 20.46456834 -198.69608684 15.90452964 -199 11 C-196.41952564 12.29023718 -196.32977036 13.27089391 -195.375 15.9375 C-195.11460937 16.644375 -194.85421875 17.35414062 -194.5859375 18.08984375 C-194 20 -194 20 -194 22 C-193.01 22.33 -192.02 22.66 -191 23 C-190.443125 24.03125 -189.88625 25.0625 -189.3125 26.125 C-182.97104618 37.74311129 -167.4186024 45.42762844 -155.23062134 49.15176392 C-142.41743216 52.40919747 -129.92959478 52.5528726 -116.7734375 52.4609375 C-114.48662419 52.45854644 -112.19980889 52.45764915 -109.91299438 52.4581604 C-105.15785137 52.45505707 -100.40301514 52.4386732 -95.64794922 52.41162109 C-89.5666105 52.37745052 -83.48560406 52.36999953 -77.40418053 52.37151146 C-72.69777279 52.37096707 -67.99143701 52.35999187 -63.28505325 52.34550858 C-61.04205492 52.33916953 -58.79904851 52.3352085 -56.55604172 52.33372116 C-53.4270314 52.32936828 -50.29836869 52.31183 -47.16943359 52.29052734 C-46.2539978 52.29143372 -45.33856201 52.29234009 -44.39538574 52.29327393 C-33.05359957 52.18078704 -21.66454467 49.22229819 -13.375 41.171875 C-12 40 -12 40 -10 40 C-9.6596875 38.948125 -9.6596875 38.948125 -9.3125 37.875 C-8 35 -8 35 -5.5625 32.375 C1.89985629 23.58796508 0.31981048 10.7669528 0 0 Z " fill="#FEAA6B" transform="translate(341,274)"/>
<path d="M0 0 C3.35600383 1.67800191 3.78798183 5.49304225 4.9375 8.875 C5.18951172 9.58914062 5.44152344 10.30328125 5.70117188 11.0390625 C9.01149102 20.58903692 11.40505342 30.23244919 13.125 40.1875 C13.29386719 41.10080078 13.46273438 42.01410156 13.63671875 42.95507812 C16.23478244 57.81722989 16.16226797 72.83343192 16.13037109 87.87158203 C16.12502028 90.86365859 16.13034534 93.85558427 16.13671875 96.84765625 C16.14415098 116.33997702 15.88982297 135.8280651 10.8515625 154.78515625 C10.2104494 157.20550525 9.60365042 159.62362975 9.0234375 162.05859375 C8.85376465 162.76322754 8.6840918 163.46786133 8.50927734 164.19384766 C8.18000869 165.56364315 7.85454852 166.93436218 7.53369141 168.30615234 C6.43734035 172.80175975 4.90952672 176.80663593 3 181 C2.67 181 2.34 181 2 181 C1.59883024 177.08859479 2.06888992 174.64147336 3.875 171.25 C6.54966114 165.77824605 6.84777705 160.10896848 7.31591797 154.12011719 C7.80987446 148.19012554 7.80987446 148.19012554 10 146 C10.44798497 143.51510013 10.44798497 143.51510013 10.59765625 140.625 C10.67693359 139.55765625 10.75621094 138.4903125 10.83789062 137.390625 C10.91201172 136.27171875 10.98613281 135.1528125 11.0625 134 C11.21643961 131.79141191 11.37381853 129.58305999 11.53515625 127.375 C11.63389038 125.90160156 11.63389038 125.90160156 11.73461914 124.3984375 C12 122 12 122 13 120 C13.12475232 116.94810449 13.18820552 113.92016247 13.203125 110.8671875 C13.20991272 109.93481766 13.21670044 109.00244781 13.22369385 108.04182434 C13.24080813 104.98618295 13.24691018 101.93068639 13.25 98.875 C13.25233643 97.83944977 13.25467285 96.80389954 13.25708008 95.73696899 C13.27164285 78.6460701 12.23292502 61.9693478 10.28125 45.00146484 C9.90394553 40.97491871 9.8960571 37.0407801 10 33 C9.34 33 8.68 33 8 33 C7.89187988 32.45690186 7.78375977 31.91380371 7.67236328 31.35424805 C6.31160958 24.85062533 4.28848003 18.72751097 2.03515625 12.48632812 C0.5319459 8.16552399 -0.34095844 4.64741184 0 0 Z " fill="#6096AB" transform="translate(381,158)"/>
<path d="M0 0 C5.89641188 -0.2557954 10.2904872 0.45913037 15.8125 2.4375 C28.11474134 6.51889952 40.16023817 6.12712635 53 6 C53.495 6.99 53.495 6.99 54 8 C61.75143547 8.0514058 69.50282579 8.08602404 77.25439453 8.10986328 C79.88234093 8.11981884 82.51027655 8.13338813 85.13818359 8.15087891 C99.12666104 8.24154003 112.89796266 8.16679559 126.79199219 6.43310547 C131.21077631 5.90444115 135.55281034 5.93028967 140 6 C140 6.33 140 6.66 140 7 C136.64583333 7.47916667 133.29166667 7.95833333 129.9375 8.4375 C128.99455078 8.57220703 128.05160156 8.70691406 127.08007812 8.84570312 C124.38671875 9.23046875 121.69335937 9.61523438 119 10 C117.99831787 10.17635986 116.99663574 10.35271973 115.96459961 10.53442383 C110.40296969 11.1875446 104.88465096 11.18290339 99.2890625 11.203125 C98.04869232 11.20882507 96.80832214 11.21452515 95.53036499 11.22039795 C92.89948371 11.22983258 90.26859068 11.23637581 87.63769531 11.24023438 C83.7010017 11.24668543 79.76469571 11.28080139 75.828125 11.3125 C49.98343592 11.41994179 24.63949984 9.18546622 0 1 C0 0.67 0 0.34 0 0 Z " fill="#6096AB" transform="translate(161,396)"/>
<path d="M0 0 C3.66509174 0.01610922 7.32908135 0.00001534 10.99414062 -0.01904297 C23.14624118 -0.03060365 35.14266483 0.41321172 47.22851562 1.72705078 C48.30375488 1.84327789 49.37899414 1.959505 50.48681641 2.07925415 C57.71565839 2.9498455 64.6451268 4.47282641 71.66601562 6.39111328 C63.867894 8.99048716 53.39367611 6.30799894 45.22851562 5.45361328 C44.48400146 5.37908936 43.7394873 5.30456543 42.97241211 5.2277832 C42.25384033 5.14890869 41.53526855 5.07003418 40.79492188 4.98876953 C40.16658447 4.92181885 39.53824707 4.85486816 38.89086914 4.78588867 C36.66601562 4.39111328 36.66601562 4.39111328 33.59155273 3.37036133 C28.69613564 1.93850358 23.79171547 2.10482174 18.72851562 2.12548828 C17.68961182 2.12357483 16.65070801 2.12166138 15.58032227 2.11968994 C13.39176185 2.1183337 11.20319323 2.1219908 9.01464844 2.13037109 C5.6768984 2.14107837 2.33968655 2.1304565 -0.99804688 2.11767578 C-3.13086056 2.11899748 -5.2636739 2.12156007 -7.39648438 2.12548828 C-8.88426392 2.11941559 -8.88426392 2.11941559 -10.40209961 2.11322021 C-15.77556019 2.14934025 -20.1715783 2.75330898 -25.33398438 4.39111328 C-27.50259729 4.66613454 -29.68031503 4.87661472 -31.86132812 5.02392578 C-33.66827148 5.14960937 -33.66827148 5.14960937 -35.51171875 5.27783203 C-37.37280273 5.39578125 -37.37280273 5.39578125 -39.27148438 5.51611328 C-40.50833984 5.60248047 -41.74519531 5.68884766 -43.01953125 5.77783203 C-49.13744238 6.1898346 -55.20244539 6.49854951 -61.33398438 6.39111328 C-61.33398438 7.05111328 -61.33398438 7.71111328 -61.33398438 8.39111328 C-64.80723618 9.54886388 -67.69465885 9.4597798 -71.33398438 9.39111328 C-57.92361752 -4.01925358 -17.23316063 -0.08961244 0 0 Z " fill="#6096AB" transform="translate(238.333984375,94.60888671875)"/>
<path d="M0 0 C0.66 0.33 1.32 0.66 2 1 C1.67 1.99 1.34 2.98 1 4 C0.34 4 -0.32 4 -1 4 C-1 4.66 -1 5.32 -1 6 C-2.32 6 -3.64 6 -5 6 C-5 8.97 -5 11.94 -5 15 C-5.99 15.495 -5.99 15.495 -7 16 C-7.33 15.34 -7.66 14.68 -8 14 C-8.66 14 -9.32 14 -10 14 C-10.515625 14.99 -11.03125 15.98 -11.5625 17 C-13.7444676 20.86161172 -16.49350629 23.97163415 -19.51171875 27.203125 C-21.21322067 29.03699037 -21.21322067 29.03699037 -22 32 C-22.99 32 -23.98 32 -25 32 C-25.268125 33.010625 -25.53625 34.02125 -25.8125 35.0625 C-26.8935156 38.87327442 -28.37862338 42.38875208 -30 46 C-30.66 46 -31.32 46 -32 46 C-32 47.98 -32 49.96 -32 52 C-32.99 52.495 -32.99 52.495 -34 53 C-35.57108516 47.49266343 -34.1118784 44.13617139 -31.5 39.3125 C-31.13632324 38.61423096 -30.77264648 37.91596191 -30.39794922 37.1965332 C-27.25626718 31.25625771 -23.76484925 25.56587173 -20 20 C-19.34 19.01 -18.68 18.02 -18 17 C-17.34 17 -16.68 17 -16 17 C-15.7628125 16.43796875 -15.525625 15.8759375 -15.28125 15.296875 C-13.71052303 12.48105958 -11.78528536 10.52044584 -9.5 8.25 C-8.7059375 7.45078125 -7.911875 6.6515625 -7.09375 5.828125 C-5 4 -5 4 -3 4 C-3 3.34 -3 2.68 -3 2 C-2.01 1.34 -1.02 0.68 0 0 Z " fill="#6096AB" transform="translate(133,119)"/>
<path d="M0 0 C0.33 0 0.66 0 1 0 C1.02507742 6.22151408 1.04303484 12.44299751 1.05493164 18.66455078 C1.05990125 20.77262892 1.06667926 22.88070373 1.07543945 24.98876953 C1.15948936 45.76392993 1.22630276 66.56201741 -4.1484375 86.78515625 C-4.7895506 89.20550525 -5.39634958 91.62362975 -5.9765625 94.05859375 C-6.23107178 95.11554443 -6.23107178 95.11554443 -6.49072266 96.19384766 C-6.81999131 97.56364315 -7.14545148 98.93436218 -7.46630859 100.30615234 C-8.56265965 104.80175975 -10.09047328 108.80663593 -12 113 C-12.33 113 -12.66 113 -13 113 C-13.40116976 109.08859479 -12.93111008 106.64147336 -11.125 103.25 C-8.45033886 97.77824605 -8.15222295 92.10896848 -7.68408203 86.12011719 C-7.19012554 80.19012554 -7.19012554 80.19012554 -5 78 C-4.56845089 75.64657031 -4.56845089 75.64657031 -4.4375 72.90625 C-4.36273438 71.875 -4.28796875 70.84375 -4.2109375 69.78125 C-4.14132812 68.6984375 -4.07171875 67.615625 -4 66.5 C-3.86003808 64.38501993 -3.71425946 62.27041629 -3.5625 60.15625 C-3.50191406 59.21587891 -3.44132812 58.27550781 -3.37890625 57.30664062 C-3.06283626 54.54835972 -2.58191518 51.98321332 -1.99072266 49.27783203 C-0.89416314 43.96182387 -0.65461869 38.81407239 -0.5859375 33.3984375 C-0.56657135 32.435961 -0.5472052 31.4734845 -0.5272522 30.48184204 C-0.46808427 27.44631455 -0.42132519 24.41074782 -0.375 21.375 C-0.33676228 19.30076588 -0.29770731 17.22654666 -0.2578125 15.15234375 C-0.16243539 10.10168532 -0.07817632 5.05095276 0 0 Z " fill="#6096AB" transform="translate(396,226)"/>
<path d="M0 0 C1.084021 0.00523682 2.16804199 0.01047363 3.28491211 0.01586914 C4.45473633 0.0190918 5.62456055 0.02231445 6.82983398 0.02563477 C8.0615332 0.03401367 9.29323242 0.04239258 10.56225586 0.05102539 C12.41560547 0.05779297 12.41560547 0.05779297 14.30639648 0.06469727 C17.37089703 0.07652931 20.43530307 0.09301366 23.49975586 0.11352539 C23.49975586 0.77352539 23.49975586 1.43352539 23.49975586 2.11352539 C24.28350586 2.19602539 25.06725586 2.27852539 25.87475586 2.36352539 C30.64023967 3.34948756 35.1403852 4.93794493 39.49975586 7.11352539 C39.99475586 8.10352539 39.99475586 8.10352539 40.49975586 9.11352539 C41.48975586 9.44352539 42.47975586 9.77352539 43.49975586 10.11352539 C43.64413086 10.75290039 43.78850586 11.39227539 43.93725586 12.05102539 C44.12288086 12.73165039 44.30850586 13.41227539 44.49975586 14.11352539 C45.09788086 14.40227539 45.69600586 14.69102539 46.31225586 14.98852539 C49.52536766 16.64098289 50.73649503 19.02781895 52.49975586 22.11352539 C52.49975586 23.10352539 52.49975586 24.09352539 52.49975586 25.11352539 C51.16046081 23.82804131 49.82846943 22.53494384 48.49975586 21.23852539 C47.75725586 20.51922852 47.01475586 19.79993164 46.24975586 19.05883789 C44.49975586 17.11352539 44.49975586 17.11352539 44.49975586 15.11352539 C43.94288086 14.88665039 43.38600586 14.65977539 42.81225586 14.42602539 C40.49975586 13.11352539 40.49975586 13.11352539 38.37475586 10.73852539 C29.33041742 2.48065117 17.04181138 2.824974 5.49975586 3.11352539 C4.58194336 3.1302832 3.66413086 3.14704102 2.71850586 3.16430664 C-2.81491336 3.46317959 -6.21632203 4.78602342 -10.73852539 7.96899414 C-12.92219163 9.38765092 -14.92018788 9.87164512 -17.50024414 10.11352539 C-17.50024414 9.12352539 -17.50024414 8.13352539 -17.50024414 7.11352539 C-13.86609889 4.29999358 -9.72543876 3.09678069 -5.39086914 1.76196289 C-0.29227314 0.01327087 -0.29227314 0.01327087 0 0 Z " fill="#2EA7C2" transform="translate(264.500244140625,176.886474609375)"/>
<path d="M0 0 C0.66 0 1.32 0 2 0 C6.14352972 6.25968955 7.59672183 10.48130488 7 18 C7.66 18 8.32 18 9 18 C9.02902429 21.27081471 9.04680684 24.5415963 9.0625 27.8125 C9.07087891 28.74126953 9.07925781 29.67003906 9.08789062 30.62695312 C9.09111328 31.51962891 9.09433594 32.41230469 9.09765625 33.33203125 C9.10289307 34.15421143 9.10812988 34.9763916 9.11352539 35.82348633 C9 38 9 38 8 41 C7.96045766 43.33299825 7.95598268 45.66708189 8 48 C8.66 48 9.32 48 10 48 C12.1875 50.8125 12.1875 50.8125 14 54 C13.67 54.99 13.34 55.98 13 57 C11.29265184 55.64972465 9.60954432 54.26875358 7.9375 52.875 C6.52791016 51.72644531 6.52791016 51.72644531 5.08984375 50.5546875 C3 48 3 48 3.12890625 44.9453125 C3.59505926 43.36917184 4.06366773 41.79368933 4.54833984 40.22314453 C5.14651136 37.27884731 5.11131081 34.48837761 5.09765625 31.484375 C5.09443359 30.23398438 5.09121094 28.98359375 5.08789062 27.6953125 C5.07951172 26.39335937 5.07113281 25.09140625 5.0625 23.75 C5.05798828 22.43257812 5.05347656 21.11515625 5.04882812 19.7578125 C5.03704316 16.50516259 5.02059011 13.25260416 5 10 C4.34 10 3.68 10 3 10 C2.49596232 8.70990357 1.99690074 7.41786211 1.5 6.125 C1.2215625 5.40570313 0.943125 4.68640625 0.65625 3.9453125 C0 2 0 2 0 0 Z " fill="#40BECE" transform="translate(318,202)"/>
<path d="M0 0 C0 0.66 0 1.32 0 2 C-1.43836751 1.88541307 -2.87570966 1.75790884 -4.3125 1.625 C-5.11300781 1.55539063 -5.91351563 1.48578125 -6.73828125 1.4140625 C-9 1 -9 1 -12 -1 C-17.81726722 -2.7872327 -23.94195677 -3.61312932 -30 -4 C-31.18722656 -4.07734375 -32.37445313 -4.1546875 -33.59765625 -4.234375 C-42.61673115 -4.62254335 -49.67075096 -3.26472936 -58.0859375 0.00390625 C-59.04757813 0.33261719 -60.00921875 0.66132813 -61 1 C-61.66 0.67 -62.32 0.34 -63 0 C-62.35933594 -0.25394531 -61.71867188 -0.50789062 -61.05859375 -0.76953125 C-59.76115234 -1.28580078 -59.76115234 -1.28580078 -58.4375 -1.8125 C-57.52355469 -2.17601562 -56.60960937 -2.53953125 -55.66796875 -2.9140625 C-53.50350194 -3.79506071 -51.37716208 -4.72191182 -49.25 -5.6875 C-33.39271328 -12.09140425 -14.95420913 -6.38012632 0 0 Z " fill="#B8E6F6" transform="translate(238,198)"/>
<path d="M0 0 C2.58047436 1.29023718 2.67022964 2.27089391 3.625 4.9375 C3.88539063 5.64777344 4.14578125 6.35804688 4.4140625 7.08984375 C5 9 5 9 5 11 C5.99 11.33 6.98 11.66 8 12 C8.556875 13.03125 9.11375 14.0625 9.6875 15.125 C15.56904038 25.90050868 29.04539697 32.52422272 40 37 C40 37.33 40 37.66 40 38 C32.6442203 39.00306087 27.3057121 35.47901358 21 32 C21 31.34 21 30.68 21 30 C20.34 30 19.68 30 19 30 C19 29.34 19 28.68 19 28 C17.35 27.34 15.7 26.68 14 26 C14 25.34 14 24.68 14 24 C13.4225 23.814375 12.845 23.62875 12.25 23.4375 C8.85537664 21.26871285 7.79502687 18.59005374 6 15 C6 14.34 6 13.68 6 13 C5.34 13 4.68 13 4 13 C0.1571395 9.46456834 0.30391316 4.90452964 0 0 Z " fill="#6096AB" transform="translate(142,285)"/>
<path d="M0 0 C0.66 0 1.32 0 2 0 C1.5422281 1.68765239 1.0837511 3.37511352 0.625 5.0625 C0.36976563 6.00222656 0.11453125 6.94195312 -0.1484375 7.91015625 C-0.73886946 10.05250341 -1.38922749 12.17888326 -2.0859375 14.2890625 C-3.17868047 18.72541217 -3.30171009 22.76518712 -3.25 27.3125 C-3.24468262 28.15047119 -3.23936523 28.98844238 -3.23388672 29.85180664 C-3.13129237 39.77961121 -3.13129237 39.77961121 0.1328125 49.00390625 C1.1909572 51.43954564 0.87606631 52.54701433 0 55 C-0.67595315 53.58774074 -1.34040059 52.16997095 -2 50.75 C-2.37125 49.96109375 -2.7425 49.1721875 -3.125 48.359375 C-4 46 -4 46 -4 42 C-4.66 42 -5.32 42 -6 42 C-6.05859908 37.68755812 -6.09379686 33.37522026 -6.125 29.0625 C-6.14175781 27.85013672 -6.15851563 26.63777344 -6.17578125 25.38867188 C-6.22675917 15.98324648 -6.16314886 7.51133767 0 0 Z " fill="#3EC0E4" transform="translate(141,230)"/>
<path d="M0 0 C0.99 0.495 0.99 0.495 2 1 C2.73075648 3.3140622 3.40138258 5.64828869 4 8 C5.58083374 7.99214478 5.58083374 7.99214478 7.19360352 7.98413086 C11.12783957 7.96594216 15.06207195 7.95451755 18.99633789 7.94506836 C20.69458645 7.94005973 22.39283074 7.93325094 24.09106445 7.92456055 C26.54118915 7.91234227 28.9912565 7.90673686 31.44140625 7.90234375 C32.19273331 7.89718246 32.94406036 7.89202118 33.71815491 7.88670349 C40.79840094 7.88596097 46.70686209 8.46970312 53 12 C52.67 13.32 52.34 14.64 52 16 C51.58886963 15.64848877 51.17773926 15.29697754 50.75415039 14.93481445 C42.37865555 9.04756334 32.23182512 10.21574545 22.4375 10.1875 C20.55140369 10.16433088 18.66533307 10.13896056 16.77929688 10.11132812 C12.18610205 10.04879028 7.59358243 10.01620704 3 10 C2.01 6.7 1.02 3.4 0 0 Z " fill="#EAD56B" transform="translate(268,234)"/>
<path d="M0 0 C1.485 0.99 1.485 0.99 3 2 C3 2.66 3 3.32 3 4 C3.66 4 4.32 4 5 4 C7.08351615 7.58727128 7.80141379 11.20694042 8.625 15.25 C9.01558594 17.14492187 9.01558594 17.14492187 9.4140625 19.078125 C9.60742188 20.04234375 9.80078125 21.0065625 10 22 C11.7468811 21.96072388 11.7468811 21.96072388 13.52905273 21.9206543 C17.88432306 21.82958266 22.23951067 21.7725454 26.59545898 21.7253418 C28.4741841 21.70032656 30.35281316 21.66630294 32.23120117 21.62280273 C52.29204868 21.17014225 52.29204868 21.17014225 59 27 C57.4375 27.75 57.4375 27.75 55 28 C53.32416588 26.99715488 51.64971614 25.99177802 49.98800659 24.96569824 C46.39489775 23.22030217 42.71497442 23.39653519 38.78515625 23.390625 C37.50154457 23.36582062 37.50154457 23.36582062 36.19200134 23.34051514 C33.48209287 23.29226742 30.77274457 23.27071647 28.0625 23.25 C26.21546696 23.2218208 24.36845975 23.19189066 22.52148438 23.16015625 C18.01436909 23.08651505 13.50756054 23.036799 9 23 C8.15733289 21.25447527 7.32619962 19.5033792 6.5 17.75 C6.0359375 16.77546875 5.571875 15.8009375 5.09375 14.796875 C4 12 4 12 4 8 C3.01 8 2.02 8 1 8 C0.67 5.36 0.34 2.72 0 0 Z " fill="#F4E7B4" transform="translate(261,222)"/>
<path d="M0 0 C0.66 0 1.32 0 2 0 C-2.6951102 15.43343156 -13.49487682 29.03671936 -26 39 C-26.66 38.67 -27.32 38.34 -28 38 C-28 37.01 -28 36.02 -28 35 C-27.01 35 -26.02 35 -25 35 C-24.67 33.68 -24.34 32.36 -24 31 C-23.01 31.33 -22.02 31.66 -21 32 C-20.95875 31.4225 -20.9175 30.845 -20.875 30.25 C-20 28 -20 28 -17.0625 26.125 C-13.44025377 23.61160466 -13.26613764 22.06972812 -12 18 C-9.875 17.125 -9.875 17.125 -8 17 C-8 15.35 -8 13.7 -8 12 C-7.34 12 -6.68 12 -6 12 C-5.67 10.35 -5.34 8.7 -5 7 C-4.34 7 -3.68 7 -3 7 C-2.67 5.35 -2.34 3.7 -2 2 C-1.34 2 -0.68 2 0 2 C0 1.34 0 0.68 0 0 Z " fill="#55CCE0" transform="translate(381,340)"/>
<path d="M0 0 C-3.08809695 1.76462683 -4.23312136 2 -8 2 C-8.33 2.99 -8.66 3.98 -9 5 C-9.99 5.33 -10.98 5.66 -12 6 C-12.70211894 7.65204456 -13.36971413 9.31923769 -14 11 C-14.99 11.495 -14.99 11.495 -16 12 C-16.33 12.66 -16.66 13.32 -17 14 C-19.64 13.67 -22.28 13.34 -25 13 C-25.33 13.66 -25.66 14.32 -26 15 C-27.65 14.67 -29.3 14.34 -31 14 C-25.75191214 8.1055959 -8.09485816 -2.69828605 0 0 Z " fill="#06A4E7" transform="translate(166,105)"/>
<path d="M0 0 C0 0.33 0 0.66 0 1 C-3.35416667 1.47916667 -6.70833333 1.95833333 -10.0625 2.4375 C-11.00544922 2.57220703 -11.94839844 2.70691406 -12.91992188 2.84570312 C-15.61328125 3.23046875 -18.30664062 3.61523438 -21 4 C-21.98355469 4.17853516 -22.96710938 4.35707031 -23.98046875 4.54101562 C-29.80622202 5.36663512 -35.72054254 5.12180529 -41.58984375 5.09765625 C-43.53933678 5.09553383 -43.53933678 5.09553383 -45.5282135 5.09336853 C-48.96243253 5.08957334 -52.39660842 5.07976908 -55.83081055 5.06866455 C-59.34358131 5.05838555 -62.85635912 5.05385708 -66.36914062 5.04882812 C-73.24611133 5.03814376 -80.12305359 5.02110388 -87 5 C-87 4.67 -87 4.34 -87 4 C-67.86 4 -48.72 4 -29 4 C-29 3.34 -29 2.68 -29 2 C-25.85495307 1.65896535 -22.70886583 1.32862537 -19.5625 1 C-18.24475586 0.85691406 -18.24475586 0.85691406 -16.90039062 0.7109375 C-11.23241145 0.12531604 -5.69811032 -0.09274645 0 0 Z " fill="#67C5D7" transform="translate(301,402)"/>
<path d="M0 0 C0.66 0 1.32 0 2 0 C2.33872513 1.41538717 2.67074624 2.83237963 3 4.25 C3.185625 5.03890625 3.37125 5.8278125 3.5625 6.640625 C4 9 4 9 4 13 C4.99 13.33 5.98 13.66 7 14 C8.80266269 17.41557141 9.218934 20.16865501 9 24 C9.66 24 10.32 24 11 24 C11.31453125 24.88042969 11.6290625 25.76085937 11.953125 26.66796875 C12.38109375 27.82941406 12.8090625 28.99085938 13.25 30.1875 C13.66765625 31.33605469 14.0853125 32.48460937 14.515625 33.66796875 C15.98058209 36.95641189 17.71413603 39.25012518 20 42 C20 42.66 20 43.32 20 44 C21.485 43.505 21.485 43.505 23 43 C23.33 45.31 23.66 47.62 24 50 C17.93408005 44.28070404 13.67257578 37.89924128 10 30.4375 C9.6589624 29.74785156 9.3179248 29.05820312 8.96655273 28.34765625 C4.60748786 19.347233 0.60520312 10.08671863 0 0 Z " fill="#72CEE1" transform="translate(94,317)"/>
<path d="M0 0 C0.66 0.33 1.32 0.66 2 1 C0.04029051 3.39520049 -1.08109766 4.0243293 -4.125 4.9375 C-5.548125 5.4634375 -5.548125 5.4634375 -7 6 C-7.34257517 7.33098878 -7.67467023 8.66469126 -8 10 C-9.453125 11.74609375 -9.453125 11.74609375 -11.25 13.4375 C-11.8790625 14.03949219 -12.508125 14.64148438 -13.15625 15.26171875 C-13.7646875 15.83535156 -14.373125 16.40898437 -15 17 C-15.9075 17.9075 -16.815 18.815 -17.75 19.75 C-20 22 -20 22 -21.6875 23.4375 C-23.59039606 25.70285245 -24.18809375 28.1895553 -25 31 C-25.99 31 -26.98 31 -28 31 C-25.8759684 22.71627675 -20.94071945 15.89005234 -14 11 C-13.34 11 -12.68 11 -12 11 C-11.731875 10.236875 -11.46375 9.47375 -11.1875 8.6875 C-10.00172475 6.00390337 -9.3185214 4.73889105 -7 3 C-5.01643517 2.28591666 -3.01684563 1.61382258 -1 1 C-0.67 0.67 -0.34 0.34 0 0 Z " fill="#CBECF7" transform="translate(172,199)"/>
<path d="M0 0 C4.55999268 2.27999634 6.979937 9.42301041 9 14 C11.89113294 22.82358756 10.78220187 34.59510694 7 43 C6.01 43.66 5.02 44.32 4 45 C4.495 43.1128125 4.495 43.1128125 5 41.1875 C7.15520519 30.23968232 8.42974961 15.71502313 2 6 C1.34 5.67 0.68 5.34 0 5 C0 3.35 0 1.7 0 0 Z " fill="#BFEDF9" transform="translate(332,260)"/>
<path d="M0 0 C0.66 0 1.32 0 2 0 C2.87324991 3.75638305 3.12163671 7.22256132 3.11352539 11.07543945 C3.11344986 12.27630692 3.11337433 13.47717438 3.11329651 14.71443176 C3.10813522 16.00105209 3.10297394 17.28767242 3.09765625 18.61328125 C3.09578956 19.95134936 3.09436684 21.28941815 3.09336853 22.62748718 C3.08956314 26.1373587 3.07974988 29.64718839 3.06866455 33.15704346 C3.05840777 36.74336176 3.05386179 40.32968686 3.04882812 43.91601562 C3.03812572 50.94402753 3.02107321 57.97201175 3 65 C2.67 65 2.34 65 2 65 C1.97494385 63.91170898 1.9498877 62.82341797 1.92407227 61.70214844 C1.8288834 57.6092841 1.72894945 53.51654628 1.62768555 49.42382812 C1.58475303 47.66279082 1.54305503 45.90172292 1.50268555 44.140625 C1.2976544 35.23062946 1.04161009 26.37678087 0.20727539 17.49902344 C-0.09106139 13.90211493 -0.0959188 10.35923023 -0.0625 6.75 C-0.05347656 5.46609375 -0.04445313 4.1821875 -0.03515625 2.859375 C-0.02355469 1.91578125 -0.01195312 0.9721875 0 0 Z " fill="#36B3D7" transform="translate(393,205)"/>
<path d="M0 0 C-3.02957843 2.16398459 -5.51851939 3.86518543 -9.125 4.875 C-12.96014203 6.37570775 -13.81123007 8.58004698 -16 12 C-17.98689731 13.35278115 -19.98745218 14.68568305 -22 16 C-26.61028561 20.7227316 -29.2338849 26.04402452 -32 32 C-33.20337317 28.3898805 -32.47715457 26.59913641 -31.09375 23.140625 C-29.30955898 19.64870829 -26.92947871 16.61123451 -24 14 C-23.34 14 -22.68 14 -22 14 C-21.67 12.68 -21.34 11.36 -21 10 C-19.68 9.67 -18.36 9.34 -17 9 C-17 8.01 -17 7.02 -17 6 C-3.86792453 -1.93396226 -3.86792453 -1.93396226 0 0 Z " fill="#2FAFDF" transform="translate(176,198)"/>
<path d="M0 0 C0.33 0 0.66 0 1 0 C1.02703381 1.93742341 1.04641125 3.87495479 1.0625 5.8125 C1.07410156 6.89144531 1.08570313 7.97039062 1.09765625 9.08203125 C1 12 1 12 0 15 C-0.42866908 22.10793142 -0.14368733 28.86171249 1.5625 35.78125 C2.04596613 38.23311397 2.07022232 40.50710771 2 43 C0 42 0 42 -1.0625 39.375 C-4.41588333 27.30282001 -5.03279003 11.65330548 0 0 Z " fill="#C4EDF9" transform="translate(140,238)"/>
<path d="M0 0 C1.65 0 3.3 0 5 0 C5 0.66 5 1.32 5 2 C3.09648226 3.35155726 1.12338362 4.60562398 -0.875 5.8125 C-1.46273193 6.16779785 -2.05046387 6.5230957 -2.65600586 6.88916016 C-7.64085934 9.86642252 -12.75616298 12.50845313 -18 15 C-18.70511719 15.3815625 -19.41023438 15.763125 -20.13671875 16.15625 C-22.48409997 17.21921508 -23.62247575 16.8491158 -26 16 C-25.34 16 -24.68 16 -24 16 C-24 15.34 -24 14.68 -24 14 C-21 12 -21 12 -18 12 C-18 11.34 -18 10.68 -18 10 C-15.03 9.34 -12.06 8.68 -9 8 C-9 7.34 -9 6.68 -9 6 C-7.68 6 -6.36 6 -5 6 C-5 5.34 -5 4.68 -5 4 C-4.34 4 -3.68 4 -3 4 C-3 3.34 -3 2.68 -3 2 C-2.01 2 -1.02 2 0 2 C0 1.34 0 0.68 0 0 Z " fill="#54C6DC" transform="translate(348,379)"/>
<path d="M0 0 C8.1528034 -0.17103783 15.49919299 0.25306958 22.7890625 4.1171875 C20.2315403 5.3959486 19.51523982 4.90382835 16.7890625 4.1796875 C5.43961253 1.79465816 -6.24321854 1.89300343 -17.0234375 6.33984375 C-17.7453125 6.59636719 -18.4671875 6.85289062 -19.2109375 7.1171875 C-19.8709375 6.7871875 -20.5309375 6.4571875 -21.2109375 6.1171875 C-14.17923127 0.79430373 -8.58931752 0.31347874 0 0 Z " fill="#BBC96C" transform="translate(273.2109375,178.8828125)"/>
<path d="M0 0 C14.19874111 -0.50113204 28.35606925 0.98707919 42 5 C34.20187838 7.59937387 23.72766049 4.91688566 15.5625 4.0625 C14.81798584 3.98797607 14.07347168 3.91345215 13.30639648 3.83666992 C8.67521194 3.32832485 4.44548057 2.39982853 0 1 C0 0.67 0 0.34 0 0 Z " fill="#38A6D5" transform="translate(268,96)"/>
<path d="M0 0 C7.92889982 -0.66074165 13.98697939 1.24302467 21 5 C21.33 5.66 21.66 6.32 22 7 C22.99 7.33 23.98 7.66 25 8 C25.144375 8.639375 25.28875 9.27875 25.4375 9.9375 C25.623125 10.618125 25.80875 11.29875 26 12 C26.8971875 12.433125 26.8971875 12.433125 27.8125 12.875 C31.0256118 14.5274575 32.23673917 16.91429355 34 20 C34 20.99 34 21.98 34 23 C32.66070495 21.71451591 31.32871357 20.42141845 30 19.125 C29.2575 18.40570313 28.515 17.68640625 27.75 16.9453125 C26 15 26 15 26 13 C25.443125 12.773125 24.88625 12.54625 24.3125 12.3125 C22 11 22 11 19.875 8.625 C14.35152592 3.58182801 7.34499505 1.63869522 0 1 C0 0.67 0 0.34 0 0 Z " fill="#3EABB7" transform="translate(283,179)"/>
<path d="M0 0 C0.94602608 3.0851746 1.01578237 5.49259007 0.625 8.6875 C0.53476563 9.47511719 0.44453125 10.26273438 0.3515625 11.07421875 C0 13 0 13 -1 14 C-1.20467172 17.46425832 -1.34595185 20.92157659 -1.4296875 24.390625 C-1.64732494 29.59578711 -2.68180233 33.32641432 -5 38 C-5.33 38 -5.66 38 -6 38 C-5.84577535 24.5684354 -4.18123164 12.77512842 0 0 Z " fill="#20A3D8" transform="translate(97,170)"/>
<path d="M0 0 C11.15688763 2.91049243 20.38193694 7.78896241 30 14 C29.67 14.66 29.34 15.32 29 16 C28.32453125 15.65066406 27.6490625 15.30132812 26.953125 14.94140625 C26.06109375 14.48636719 25.1690625 14.03132813 24.25 13.5625 C23.36828125 13.11003906 22.4865625 12.65757813 21.578125 12.19140625 C19.35801434 11.16544602 17.38555381 10.48491397 15 10 C15 9.34 15 8.68 15 8 C13.68 8 12.36 8 11 8 C11 7.34 11 6.68 11 6 C10.37351562 5.90203125 9.74703125 5.8040625 9.1015625 5.703125 C7.87566406 5.47882813 7.87566406 5.47882813 6.625 5.25 C5.40683594 5.04117188 5.40683594 5.04117188 4.1640625 4.828125 C2 4 2 4 0.7109375 1.921875 C0.47632813 1.28765625 0.24171875 0.6534375 0 0 Z " fill="#5FB8DC" transform="translate(321,105)"/>
<path d="M0 0 C5.94 1.485 5.94 1.485 12 3 C12 3.99 12 4.98 12 6 C12.680625 5.9175 13.36125 5.835 14.0625 5.75 C18.25981306 6.10721813 20.50339476 7.6465157 24 10 C24.33 10.99 24.66 11.98 25 13 C20.15758753 12.36508486 16.24167578 10.3612863 11.9375 8.1875 C11.23044922 7.84396484 10.52339844 7.50042969 9.79492188 7.14648438 C9.10849609 6.80294922 8.42207031 6.45941406 7.71484375 6.10546875 C6.78853149 5.64370239 6.78853149 5.64370239 5.84350586 5.17260742 C4 4 4 4 0 0 Z " fill="#6096AB" transform="translate(136,383)"/>
<path d="M0 0 C0.66 0 1.32 0 2 0 C8.74258542 10.52440455 8.15701368 19.73548728 8 32 C7.01 32.495 7.01 32.495 6 33 C5.67 25.41 5.34 17.82 5 10 C4.34 10 3.68 10 3 10 C2.49596232 8.70990357 1.99690074 7.41786211 1.5 6.125 C1.2215625 5.40570313 0.943125 4.68640625 0.65625 3.9453125 C0 2 0 2 0 0 Z " fill="#8EBF8A" transform="translate(318,202)"/>
<path d="M0 0 C0.66 0.33 1.32 0.66 2 1 C1.67 1.99 1.34 2.98 1 4 C0.34 4 -0.32 4 -1 4 C-1 4.66 -1 5.32 -1 6 C-2.32 6 -3.64 6 -5 6 C-5 8.97 -5 11.94 -5 15 C-5.99 15.495 -5.99 15.495 -7 16 C-7.99 15.01 -8.98 14.02 -10 13 C-12.31 14.98 -14.62 16.96 -17 19 C-17.33 18.34 -17.66 17.68 -18 17 C-17.34 17 -16.68 17 -16 17 C-15.7628125 16.43796875 -15.525625 15.8759375 -15.28125 15.296875 C-13.71052303 12.48105958 -11.78528536 10.52044584 -9.5 8.25 C-8.7059375 7.45078125 -7.911875 6.6515625 -7.09375 5.828125 C-5 4 -5 4 -3 4 C-3 3.34 -3 2.68 -3 2 C-2.01 1.34 -1.02 0.68 0 0 Z " fill="#41B2DE" transform="translate(133,119)"/>
<path d="M0 0 C-2 2 -2 2 -4.5 2.375 C-7.16470196 2.73647686 -7.16470196 2.73647686 -8.3125 5.0625 C-8.539375 5.701875 -8.76625 6.34125 -9 7 C-9.66 6.67 -10.32 6.34 -11 6 C-10.67 5.01 -10.34 4.02 -10 3 C-15.44680376 3.63434221 -20.80463135 4.45948376 -26.1875 5.5 C-27.21520508 5.69529297 -27.21520508 5.69529297 -28.26367188 5.89453125 C-31.84631256 6.5772674 -35.42505934 7.27807024 -39 8 C-35.79054398 5.1496974 -33.50011452 4.56548301 -29.25 4.3125 C-28.26515625 4.24675781 -27.2803125 4.18101563 -26.265625 4.11328125 C-25.51796875 4.07589844 -24.7703125 4.03851563 -24 4 C-24 3.34 -24 2.68 -24 2 C-21.31306278 1.66148822 -18.62559711 1.329064 -15.9375 1 C-14.80924805 0.85691406 -14.80924805 0.85691406 -13.65820312 0.7109375 C-9.06578683 0.15428098 -4.6257865 -0.09829028 0 0 Z " fill="#15A0DE" transform="translate(201,99)"/>
<path d="M0 0 C8.45309882 3.15878956 14.93677608 8.41038686 21 15 C20.67 15.66 20.34 16.32 20 17 C19.34 16.34 18.68 15.68 18 15 C15.68234271 14.28072705 13.34904126 13.6090107 11 13 C11 11.68 11 10.36 11 9 C10.01 9 9.02 9 8 9 C7.62875 8.0409375 7.62875 8.0409375 7.25 7.0625 C6.21186805 4.80364886 6.21186805 4.80364886 4 4.5 C2 4 2 4 0.75 1.9375 C0.5025 1.298125 0.255 0.65875 0 0 Z " fill="#F1E7B0" transform="translate(238,200)"/>
<path d="M0 0 C5.89119865 -0.2495714 10.39670937 0.44126948 15.9375 2.375 C17.33110792 2.83742739 18.7256384 3.29708408 20.12109375 3.75390625 C20.7847998 3.97191895 21.44850586 4.18993164 22.13232422 4.41455078 C25.70676226 5.53500862 29.32793695 6.2787019 33 7 C33 7.33 33 7.66 33 8 C21.63883325 7.51859463 10.71699388 4.70525525 0 1 C0 0.67 0 0.34 0 0 Z " fill="#66C7D9" transform="translate(161,396)"/>
<path d="M0 0 C0.80566406 0.00322266 1.61132812 0.00644531 2.44140625 0.00976562 C3.70404297 0.02233398 3.70404297 0.02233398 4.9921875 0.03515625 C5.84167969 0.03966797 6.69117188 0.04417969 7.56640625 0.04882812 C9.66669659 0.06062751 11.7669508 0.07856319 13.8671875 0.09765625 C14.1971875 1.08765625 14.5271875 2.07765625 14.8671875 3.09765625 C9.03544348 6.01352826 0.1101528 3.90320016 -6.1328125 3.09765625 C-6.1328125 2.43765625 -6.1328125 1.77765625 -6.1328125 1.09765625 C-3.8362755 -0.05061225 -2.54968083 -0.0179555 0 0 Z " fill="#39C2DC" transform="translate(200.1328125,401.90234375)"/>
<path d="M0 0 C0.84291332 2.39003272 1.15384404 3.5854308 0.2578125 6 C-0.11601563 6.66 -0.48984375 7.32 -0.875 8 C-2.36369506 10.66507647 -3.37155174 13.00484233 -4 16 C-4.66 16 -5.32 16 -6 16 C-6 17.98 -6 19.96 -6 22 C-6.66 22.33 -7.32 22.66 -8 23 C-9.50313885 17.97635173 -8.58679663 15.28598364 -6.29296875 10.83398438 C-5.90753906 10.12564453 -5.52210937 9.41730469 -5.125 8.6875 C-4.74730469 7.95982422 -4.36960937 7.23214844 -3.98046875 6.48242188 C-1.22880993 1.22880993 -1.22880993 1.22880993 0 0 Z " fill="#61B4D4" transform="translate(107,149)"/>
<path d="M0 0 C0.33 0 0.66 0 1 0 C1.33 3.3 1.66 6.6 2 10 C2.66 10 3.32 10 4 10 C4.84023188 14.35332736 5.10770995 18.44442519 5.0625 22.875 C5.05347656 24.02742188 5.04445313 25.17984375 5.03515625 26.3671875 C5.02355469 27.23601562 5.01195313 28.10484375 5 29 C4.67 29 4.34 29 4 29 C3.32081305 25.66909377 2.65897708 22.33495832 2 19 C1.80921875 18.06542969 1.6184375 17.13085938 1.421875 16.16796875 C0.3445329 10.66582872 -0.21153456 5.60566572 0 0 Z " fill="#6FCADA" transform="translate(89,288)"/>
<path d="M0 0 C0.66 0 1.32 0 2 0 C2.33872513 1.41538717 2.67074624 2.83237963 3 4.25 C3.185625 5.03890625 3.37125 5.8278125 3.5625 6.640625 C4 9 4 9 4 13 C4.99 13.33 5.98 13.66 7 14 C8.4477922 16.89558441 9 18.74188938 9 22 C8.01 22 7.02 22 6 22 C0.44419134 7.40318907 0.44419134 7.40318907 0 0 Z " fill="#63C2D3" transform="translate(94,317)"/>
<path d="M0 0 C0.66 0 1.32 0 2 0 C2.67057887 1.7902061 3.3363469 3.58221489 4 5.375 C4.556875 6.87160156 4.556875 6.87160156 5.125 8.3984375 C6 11 6 11 6 13 C14.25 13 22.5 13 31 13 C31 13.33 31 13.66 31 14 C22.42 14 13.84 14 5 14 C0.5 5 0.5 5 0 0 Z " fill="#6096AB" transform="translate(267,228)"/>
<path d="M0 0 C0 0.33 0 0.66 0 1 C-0.9075 1.2475 -1.815 1.495 -2.75 1.75 C-7.38014575 3.0525256 -11.89472268 4.68407342 -16.42578125 6.29296875 C-19 7 -19 7 -21 6 C-20.34 5.01 -19.68 4.02 -19 3 C-18.01 3 -17.02 3 -16 3 C-16 2.34 -16 1.68 -16 1 C-10.59255982 0.22750855 -5.46137814 -0.09752461 0 0 Z " fill="#4AB9E4" transform="translate(198,190)"/>
<path d="M0 0 C5.84891393 0.46175636 11.11742835 2.81851264 16 6 C16.33 6.99 16.66 7.98 17 9 C14.69 8.34 12.38 7.68 10 7 C10 6.34 10 5.68 10 5 C8.02 5 6.04 5 4 5 C4 4.34 4 3.68 4 3 C2.68 3 1.36 3 0 3 C0 2.01 0 1.02 0 0 Z " fill="#07A4EB" transform="translate(336,115)"/>
<path d="M0 0 C-3.02957843 2.16398459 -5.51851939 3.86518543 -9.125 4.875 C-12.93666713 6.36652192 -13.89332856 8.58573939 -16 12 C-16.99 12.33 -17.98 12.66 -19 13 C-18.17719683 8.24602615 -17.89613662 6.64521837 -13.875 3.75 C-12.59942594 3.13226917 -11.30607146 2.55032526 -10 2 C-8.92685547 1.53400391 -8.92685547 1.53400391 -7.83203125 1.05859375 C-2.34246231 -1.17123116 -2.34246231 -1.17123116 0 0 Z " fill="#53BBE4" transform="translate(176,198)"/>
<path d="M0 0 C0 4.02301077 -1.32422888 5.04256877 -4 8 C-5.94943557 9.74498257 -7.95058713 11.36978522 -10 13 C-10.66 12.67 -11.32 12.34 -12 12 C-12 11.01 -12 10.02 -12 9 C-11.01 9 -10.02 9 -9 9 C-8.67 7.68 -8.34 6.36 -8 5 C-7.01 5.33 -6.02 5.66 -5 6 C-4.9175 5.38125 -4.835 4.7625 -4.75 4.125 C-4 2 -4 2 -1.9375 0.75 C-1.298125 0.5025 -0.65875 0.255 0 0 Z " fill="#5CC6DA" transform="translate(365,366)"/>
<path d="M0 0 C-7.92 0 -15.84 0 -24 0 C-16.75857867 -3.62071067 -7.00543695 -4.6702913 0 0 Z " fill="#1DA8DF" transform="translate(217,190)"/>
<path d="M0 0 C0.99 0 1.98 0 3 0 C3.32405231 4.64474974 2.88473323 7.29105728 0 11 C-2.1875 12.3125 -2.1875 12.3125 -4 13 C-3.67 10.36 -3.34 7.72 -3 5 C-2.34 5.33 -1.68 5.66 -1 6 C-0.67 4.02 -0.34 2.04 0 0 Z " fill="#06A4E7" transform="translate(101,165)"/>
<path d="M0 0 C2.58047436 1.29023718 2.67022964 2.27089391 3.625 4.9375 C3.88539063 5.64777344 4.14578125 6.35804688 4.4140625 7.08984375 C5 9 5 9 5 11 C5.99 11.33 6.98 11.66 8 12 C9.1875 14.5625 9.1875 14.5625 10 17 C8.68 16.34 7.36 15.68 6 15 C6 14.34 6 13.68 6 13 C5.34 13 4.68 13 4 13 C0.1571395 9.46456834 0.30391316 4.90452964 0 0 Z " fill="#57CDE6" transform="translate(142,285)"/>
<path d="M0 0 C0.33 0 0.66 0 1 0 C1.05819424 3.24992446 1.09366116 6.49971435 1.125 9.75 C1.14175781 10.67039063 1.15851563 11.59078125 1.17578125 12.5390625 C1.18222656 13.42851562 1.18867188 14.31796875 1.1953125 15.234375 C1.20578613 16.05131836 1.21625977 16.86826172 1.22705078 17.70996094 C0.97829916 20.21887518 0.25700129 21.83395625 -1 24 C-1.66 24 -2.32 24 -3 24 C-2.85950482 22.52031676 -2.71245174 21.04125484 -2.5625 19.5625 C-2.48128906 18.73878906 -2.40007812 17.91507813 -2.31640625 17.06640625 C-2 15 -2 15 -1 14 C-0.76472227 11.65012738 -0.58613583 9.29443961 -0.4375 6.9375 C-0.35371094 5.64714844 -0.26992188 4.35679687 -0.18359375 3.02734375 C-0.12300781 2.02832031 -0.06242187 1.02929688 0 0 Z " fill="#4CB7B7" transform="translate(326,220)"/>
<path d="M0 0 C-3.08809695 1.76462683 -4.23312136 2 -8 2 C-8.33 2.99 -8.66 3.98 -9 5 C-11.07421875 5.87890625 -11.07421875 5.87890625 -13.6875 6.5625 C-15.03521484 6.92988281 -15.03521484 6.92988281 -16.41015625 7.3046875 C-17.26480469 7.53414062 -18.11945313 7.76359375 -19 8 C-21.00342734 8.65629516 -23.00531118 9.31760646 -25 10 C-22.38492825 6.90442037 -19.34449614 5.58673355 -15.6875 3.9375 C-14.02267578 3.17759766 -14.02267578 3.17759766 -12.32421875 2.40234375 C-3.7033195 -1.23443983 -3.7033195 -1.23443983 0 0 Z " fill="#78BFE1" transform="translate(166,105)"/>
<path d="M0 0 C0.33 0 0.66 0 1 0 C1.05849554 3.20825562 1.09376162 6.41637233 1.125 9.625 C1.15013672 10.98044922 1.15013672 10.98044922 1.17578125 12.36328125 C1.21201643 17.32750152 0.96444146 21.34411907 -1 26 C-1.33 26 -1.66 26 -2 26 C-2.02708567 24.39592672 -2.04643483 22.7917215 -2.0625 21.1875 C-2.07410156 20.29417969 -2.08570313 19.40085938 -2.09765625 18.48046875 C-2 16 -2 16 -1 13 C-0.77548542 10.77425665 -0.59217122 8.54418481 -0.4375 6.3125 C-0.35371094 5.13300781 -0.26992188 3.95351562 -0.18359375 2.73828125 C-0.12300781 1.83464844 -0.06242187 0.93101562 0 0 Z " fill="#DBCB52" transform="translate(323,220)"/>
<path d="M0 0 C2.10642163 6.48359566 -0.72927538 13.8366046 -3 20 C-3.33 20 -3.66 20 -4 20 C-3.91254425 17.60250616 -3.80562925 15.20851779 -3.6875 12.8125 C-3.66494141 12.13896484 -3.64238281 11.46542969 -3.61914062 10.77148438 C-3.38404446 6.39014677 -2.57557314 3.55608624 0 0 Z " fill="#1AA7DD" transform="translate(93,204)"/>
<path d="M0 0 C0.92565097 3.04838441 1.04155806 5.46489969 0.6875 8.625 C0.60886719 9.40101563 0.53023438 10.17703125 0.44921875 10.9765625 C0 13 0 13 -2 15 C-2.40047444 17.32275177 -2.7397104 19.65739357 -3 22 C-3.66 22 -4.32 22 -5 22 C-4.47458553 14.2501365 -2.44408524 7.3549914 0 0 Z " fill="#FF6B6B" transform="translate(97,170)"/>
<path d="M0 0 C0.66 0.33 1.32 0.66 2 1 C-0.453111 5.05257532 -3.80479568 6.79519438 -7.9375 8.8125 C-8.86852539 9.29879883 -8.86852539 9.29879883 -9.81835938 9.79492188 C-14.40060593 12.07384535 -14.40060593 12.07384535 -17.44140625 11.69921875 C-17.95574219 11.46847656 -18.47007812 11.23773438 -19 11 C-17.82244141 10.56300781 -17.82244141 10.56300781 -16.62109375 10.1171875 C-9.99633198 7.53231113 -5.0916581 4.9759386 0 0 Z " fill="#66D0E9" transform="translate(329,314)"/>
<path d="M0 0 C4.03029193 6.04543789 4.50886553 13.87588258 4 21 C3.34 21.66 2.68 22.32 2 23 C1.34 15.41 0.68 7.82 0 0 Z " fill="#66C0E0" transform="translate(390,184)"/>
<path d="M0 0 C3.91225672 1.26884002 6.0949669 2.28518545 8 6 C8.53206434 8.99092476 8.81220871 11.96943709 9 15 C8.34 14.01 7.68 13.02 7 12 C6.360625 11.071875 5.72125 10.14375 5.0625 9.1875 C3.13098652 6.20243372 1.5270768 3.20686129 0 0 Z " fill="#45C6E2" transform="translate(332,259)"/>
<path d="M0 0 C-2.57498808 2.57498808 -4.83827942 3.06266755 -8.3125 4.125 C-9.44300781 4.47820312 -10.57351563 4.83140625 -11.73828125 5.1953125 C-14.66386802 5.91707403 -17.01048079 6.16826562 -20 6 C-17.28817788 3.39665076 -16.10866187 3.00543309 -12.25 2.8125 C-11.1775 2.874375 -10.105 2.93625 -9 3 C-9 2.34 -9 1.68 -9 1 C-5.8035914 -0.06546953 -3.34252724 -0.07427838 0 0 Z " fill="#69CEDF" transform="translate(322,396)"/>
<path d="M0 0 C0.33 0 0.66 0 1 0 C0.51030705 6.61085476 -1.33442742 11.94977014 -4 18 C-4.33 18 -4.66 18 -5 18 C-5.28773432 13.20922365 -4.44169975 9.99382444 -2.5 5.625 C-2.0359375 4.56539063 -1.571875 3.50578125 -1.09375 2.4140625 C-0.55234375 1.21910156 -0.55234375 1.21910156 0 0 Z " fill="#70CADA" transform="translate(388,321)"/>
<path d="M0 0 C1.34313399 0.64669414 2.67391178 1.31903578 4 2 C4.825 2.4125 5.65 2.825 6.5 3.25 C9.60743636 5.42520546 11.1496298 7.71045298 13 11 C13 11.99 13 12.98 13 14 C11.66070495 12.71451591 10.32871357 11.42141845 9 10.125 C8.2575 9.40570313 7.515 8.68640625 6.75 7.9453125 C5 6 5 6 5 4 C4.360625 3.71125 3.72125 3.4225 3.0625 3.125 C1 2 1 2 0 0 Z " fill="#87BE91" transform="translate(304,188)"/>
<path d="M0 0 C3.95363363 1.16811903 6.79224156 2.43379325 10 5 C11.31836295 5.69580267 12.64791086 6.37224433 14 7 C9.45194365 7.17835515 6.1205746 6.99785435 2 5 C2 4.01 2 3.02 2 2 C1.34 2 0.68 2 0 2 C0 1.34 0 0.68 0 0 Z " fill="#56CDE6" transform="translate(168,316)"/>
<path d="M0 0 C-0.99 0.33 -1.98 0.66 -3 1 C-3 1.66 -3 2.32 -3 3 C-4.4096347 3.70180531 -5.82807641 4.38593958 -7.25 5.0625 C-8.03890625 5.44535156 -8.8278125 5.82820313 -9.640625 6.22265625 C-12.25993522 7.08564091 -13.44855176 6.93045933 -16 6 C-13.10600531 3.65788337 -10.32844572 2.13137829 -6.875 0.75 C-6.00617188 0.39421875 -5.13734375 0.0384375 -4.2421875 -0.328125 C-2 -1 -2 -1 0 0 Z " fill="#3AA3D3" transform="translate(151,112)"/>
<path d="M0 0 C3.34489996 0.59730356 5.57917355 1.57917355 8 4 C8.109375 6.609375 8.109375 6.609375 8 9 C6.65826597 8.07456291 5.32679841 7.13422595 4 6.1875 C3.2575 5.66542969 2.515 5.14335937 1.75 4.60546875 C1.1725 4.07566406 0.595 3.54585938 0 3 C0 2.01 0 1.02 0 0 Z " fill="#C9F3F8" transform="translate(152,300)"/>
<path d="M0 0 C4.19469571 0.59924224 8.00999834 1.57499941 12 3 C12 3.66 12 4.32 12 5 C10.56163249 4.88541307 9.12429034 4.75790884 7.6875 4.625 C6.88699219 4.55539063 6.08648437 4.48578125 5.26171875 4.4140625 C3 4 3 4 0 2 C0 1.34 0 0.68 0 0 Z " fill="#B8E6F1" transform="translate(226,195)"/>
<path d="M0 0 C1.32 0.33 2.64 0.66 4 1 C-1.94 6.445 -1.94 6.445 -8 12 C-8.66 11.67 -9.32 11.34 -10 11 C-6.7 7.37 -3.4 3.74 0 0 Z " fill="#A3C17E" transform="translate(248,186)"/>
<path d="M0 0 C1.32 0.33 2.64 0.66 4 1 C3.525625 1.598125 3.05125 2.19625 2.5625 2.8125 C0.83534256 5.00382924 0.83534256 5.00382924 0 8 C-2.31 8 -4.62 8 -7 8 C-7 7.34 -7 6.68 -7 6 C-5.68 6 -4.36 6 -3 6 C-3 5.34 -3 4.68 -3 4 C-2.34 4 -1.68 4 -1 4 C-0.67 2.68 -0.34 1.36 0 0 Z " fill="#0EA2E0" transform="translate(135,119)"/>
<path d="M0 0 C4.92307692 4.18461538 4.92307692 4.18461538 5.3125 8.3125 C5.209375 9.199375 5.10625 10.08625 5 11 C4.01 10.67 3.02 10.34 2 10 C2 9.34 2 8.68 2 8 C1.34 8 0.68 8 0 8 C0 5.36 0 2.72 0 0 Z " fill="#12A4DC" transform="translate(376,152)"/>
<path d="M0 0 C5.28 1.32 10.56 2.64 16 4 C16 4.66 16 5.32 16 6 C10.35966205 5.50523351 6.05786581 4.58054378 1 2 C0.67 1.34 0.34 0.68 0 0 Z " fill="#C9F4F9" transform="translate(174,318)"/>
<path d="M0 0 C6.2054142 0.48320848 11.99945246 1.33318124 18 3 C14.66271977 4.11242674 12.4912907 4.00671255 9 3.75 C7.948125 3.68296875 6.89625 3.6159375 5.8125 3.546875 C2.81015374 2.96308545 1.83925712 2.37570711 0 0 Z " fill="#77C1E3" transform="translate(292,98)"/>
<path d="M0 0 C0.66 0.33 1.32 0.66 2 1 C1.67 1.99 1.34 2.98 1 4 C0.34 4 -0.32 4 -1 4 C-1 4.66 -1 5.32 -1 6 C-1.7425 6.28875 -2.485 6.5775 -3.25 6.875 C-5.56739797 7.82302644 -7.77917115 8.84845911 -10 10 C-8.38405168 7.95880212 -6.7143618 5.95927063 -5 4 C-4.34 4 -3.68 4 -3 4 C-3 3.34 -3 2.68 -3 2 C-2.01 1.34 -1.02 0.68 0 0 Z " fill="#6BBEE0" transform="translate(133,119)"/>
<path d="M0 0 C0.66 0 1.32 0 2 0 C2 1.32 2 2.64 2 4 C-3.41538462 7.07692308 -3.41538462 7.07692308 -6.375 6.6875 C-6.91125 6.460625 -7.4475 6.23375 -8 6 C-7.34 6 -6.68 6 -6 6 C-6 5.34 -6 4.68 -6 4 C-3 2 -3 2 0 2 C0 1.34 0 0.68 0 0 Z " fill="#4AC2D7" transform="translate(330,389)"/>
<path d="M0 0 C0.66 0.33 1.32 0.66 2 1 C1.67 2.32 1.34 3.64 1 5 C0.01 4.67 -0.98 4.34 -2 4 C-2 5.32 -2 6.64 -2 8 C-4 9.75 -4 9.75 -6 11 C-5.39147692 7.45028204 -4.61653196 4.23306391 -3 1 C-2.01 0.67 -1.02 0.34 0 0 Z " fill="#09A3E7" transform="translate(109,153)"/>
<path d="M0 0 C9.09677419 0.90967742 9.09677419 0.90967742 12 3 C12.33 3.99 12.66 4.98 13 6 C8.14036821 5.39254603 4.2594482 3.27241033 0 1 C0 0.67 0 0.34 0 0 Z " fill="#75CCDE" transform="translate(148,390)"/>
<path d="M0 0 C0.66 0 1.32 0 2 0 C0.91663521 3.49084212 -0.1047123 4.05521194 -3.4375 5.8125 C-7 7 -7 7 -10 6 C-7.93243723 3.2027092 -6.85559629 2.97307727 -3.3125 2.3125 C-2.219375 2.209375 -1.12625 2.10625 0 2 C0 1.34 0 0.68 0 0 Z " fill="#1EA8E0" transform="translate(177,193)"/>
<path d="M0 0 C0.33 0 0.66 0 1 0 C1 1.98 1 3.96 1 6 C0.195625 6.268125 -0.60875 6.53625 -1.4375 6.8125 C-2.283125 7.204375 -3.12875 7.59625 -4 8 C-4.33 8.99 -4.66 9.98 -5 11 C-5.33 10.34 -5.66 9.68 -6 9 C-5.02501855 7.4972763 -4.04490611 5.99788037 -3.0625 4.5 C-2.51722656 3.6646875 -1.97195312 2.829375 -1.41015625 1.96875 C-0.94480469 1.3190625 -0.47945313 0.669375 0 0 Z " fill="#67B6DB" transform="translate(114,138)"/>
<path d="M0 0 C2.78388975 1.70625501 3.85384206 2.47626739 4.75 5.6875 C4.8325 6.450625 4.915 7.21375 5 8 C4.34 8 3.68 8 3 8 C3 7.34 3 6.68 3 6 C0.525 5.01 0.525 5.01 -2 4 C-1 1 -1 1 0 0 Z " fill="#38AFDF" transform="translate(366,135)"/>
<path d="M0 0 C1.98 0 3.96 0 6 0 C6.66 1.32 7.32 2.64 8 4 C7.01 4.66 6.02 5.32 5 6 C4.34 5.67 3.68 5.34 3 5 C3 4.01 3 3.02 3 2 C2.01 1.67 1.02 1.34 0 1 C0 0.67 0 0.34 0 0 Z " fill="#13A1DF" transform="translate(315,105)"/>
<path d="M0 0 C5.19209404 -0.21192221 9.126739 0.4087311 14 2 C14 2.66 14 3.32 14 4 C12.4156683 3.91231752 10.83246433 3.80412671 9.25 3.6875 C7.92742187 3.60048828 7.92742187 3.60048828 6.578125 3.51171875 C3.67696226 2.9358819 2.20774393 1.92403852 0 0 Z " fill="#26A2D7" transform="translate(300,101)"/>
<path d="M0 0 C3.93673644 1.31224548 6.22719294 2.91910327 9 6 C8.67 6.99 8.34 7.98 8 9 C6.2925002 7.71937515 4.62626404 6.38232443 3 5 C3 4.34 3 3.68 3 3 C2.34 3 1.68 3 1 3 C0.67 2.01 0.34 1.02 0 0 Z " fill="#6AC8DB" transform="translate(118,367)"/>
<path d="M0 0 C3.98175544 2.10148204 6.35039045 4.36905358 9 8 C7.68 8 6.36 8 5 8 C0 2.77272727 0 2.77272727 0 0 Z " fill="#BFF0FA" transform="translate(323,252)"/>
<path d="M0 0 C0.75 1.6875 0.75 1.6875 1 4 C-1.13381449 7.2769294 -2.25018012 8.75006004 -6 10 C-4.6302836 6.00499382 -2.74277578 3.19990508 0 0 Z " fill="#54D0E8" transform="translate(337,304)"/>
<path d="M0 0 C1 2 1 2 0.44140625 4.1640625 C0.15136719 4.97617188 -0.13867188 5.78828125 -0.4375 6.625 C-0.72496094 7.44226563 -1.01242188 8.25953125 -1.30859375 9.1015625 C-1.53675781 9.72804687 -1.76492187 10.35453125 -2 11 C-2.99 11 -3.98 11 -5 11 C-3.77472971 6.94718288 -2.30119506 3.55639236 0 0 Z " fill="#B3E5F5" transform="translate(149,219)"/>
<path d="M0 0 C2.97 0.495 2.97 0.495 6 1 C5.67 2.32 5.34 3.64 5 5 C5.66 5 6.32 5 7 5 C8.0625 6.8125 8.0625 6.8125 9 9 C8.67 9.99 8.34 10.98 8 12 C6 9 6 9 6 6 C5.34 6 4.68 6 4 6 C2.61061923 4.03852126 1.2739589 2.03833424 0 0 Z " fill="#2FACC5" transform="translate(314,196)"/>
<path d="M0 0 C-1.32 0.33 -2.64 0.66 -4 1 C-4 1.66 -4 2.32 -4 3 C-6.64 3.66 -9.28 4.32 -12 5 C-5.5 -1.96428571 -5.5 -1.96428571 0 0 Z " fill="#8CBD86" transform="translate(264,181)"/>
<path d="M0 0 C-0.50522222 4.37859255 -3.17827222 6.81651224 -6 10 C-6 6.58238295 -5.24061454 4.17045938 -4 1 C-2 0 -2 0 0 0 Z " fill="#6ACCE2" transform="translate(373,357)"/>
<path d="M0 0 C3.46941546 0.45822468 6.67395049 0.89131683 10 2 C9.67 3.32 9.34 4.64 9 6 C6.03 4.35 3.06 2.7 0 1 C0 0.67 0 0.34 0 0 Z " fill="#E0D068" transform="translate(311,244)"/>
<path d="M0 0 C0 0.66 0 1.32 0 2 C-0.66 2 -1.32 2 -2 2 C-2 3.98 -2 5.96 -2 8 C-2.99 8.495 -2.99 8.495 -4 9 C-4.6875 6.1875 -4.6875 6.1875 -5 3 C-3.41464922 0.73521317 -2.79754986 0 0 0 Z " fill="#4EB2DD" transform="translate(103,163)"/>
<path d="M0 0 C2.475 0.495 2.475 0.495 5 1 C5 1.66 5 2.32 5 3 C5.66 3 6.32 3 7 3 C7.66 4.32 8.32 5.64 9 7 C4.58110387 5.64978174 2.65654657 3.73884332 0 0 Z " fill="#71C8DB" transform="translate(127,376)"/>
<path d="M0 0 C1.34567923 2.69135846 0.77224621 4.13876894 0.1875 7.0625 C0.01605469 7.96097656 -0.15539062 8.85945313 -0.33203125 9.78515625 C-0.55246094 10.51605469 -0.77289063 11.24695313 -1 12 C-1.99 12.495 -1.99 12.495 -3 13 C-2.45144652 8.428721 -1.58255197 4.32564205 0 0 Z " fill="#19BAE2" transform="translate(388,314)"/>
<path d="M0 0 C3.35111834 2.23407889 4.81553956 3.26215824 5.8125 7.25 C5.874375 8.1575 5.93625 9.065 6 10 C5.67 9.34 5.34 8.68 5 8 C4.34 8 3.68 8 3 8 C2.67 6.68 2.34 5.36 2 4 C1.01 4 0.02 4 -1 4 C-0.67 2.68 -0.34 1.36 0 0 Z " fill="#DECB4F" transform="translate(313,198)"/>
<path d="M0 0 C0.66 0.33 1.32 0.66 2 1 C-0.31881505 3.67901932 -2.31814468 4.66204403 -5.6875 5.6875 C-6.89986328 6.06455078 -6.89986328 6.06455078 -8.13671875 6.44921875 C-9.05904297 6.72185547 -9.05904297 6.72185547 -10 7 C-7.63266014 3.05443356 -5.34720427 2.22855773 -1 1 C-0.67 0.67 -0.34 0.34 0 0 Z " fill="#ACE1F4" transform="translate(172,199)"/>
<path d="M0 0 C0.66 0 1.32 0 2 0 C1.54857225 1.77260631 1.08859477 3.5430368 0.625 5.3125 C0.24214844 6.79169922 0.24214844 6.79169922 -0.1484375 8.30078125 C-1 11 -1 11 -3 14 C-2.40380045 9.13103697 -1.43023178 4.67209049 0 0 Z " fill="#50BEE5" transform="translate(141,230)"/>
<path d="M0 0 C0.103125 0.639375 0.20625 1.27875 0.3125 1.9375 C0.539375 2.618125 0.76625 3.29875 1 4 C1.99 4.33 2.98 4.66 4 5 C4 5.66 4 6.32 4 7 C-0.75 5.125 -0.75 5.125 -3 4 C-3 3.34 -3 2.68 -3 2 C-2.01 1.34 -1.02 0.68 0 0 Z " fill="#E2CF67" transform="translate(241,196)"/>
<path d="M0 0 C2 1 2 1 3.1875 3.375 C4 6 4 6 3 9 C1.5 7.875 1.5 7.875 0 6 C-0.1875 2.8125 -0.1875 2.8125 0 0 Z " fill="#52AAD3" transform="translate(381,158)"/>
<path d="M0 0 C0.33 0.66 0.66 1.32 1 2 C-3.625 7.875 -3.625 7.875 -7 9 C-6.67 8.01 -6.34 7.02 -6 6 C-5.34 6 -4.68 6 -4 6 C-3.71125 5.38125 -3.4225 4.7625 -3.125 4.125 C-2 2 -2 2 0 0 Z " fill="#1C9DD5" transform="translate(122,131)"/>
<path d="M0 0 C0.66 0 1.32 0 2 0 C5.22265625 5.17578125 5.22265625 5.17578125 6 7 C5.67 7.99 5.34 8.98 5 10 C4.15801693 8.90241493 3.32669329 7.79664683 2.5 6.6875 C2.0359375 6.07261719 1.571875 5.45773437 1.09375 4.82421875 C0 3 0 3 0 0 Z " fill="#1FB9D5" transform="translate(109,351)"/>
<path d="M0 0 C0.66 0 1.32 0 2 0 C0.375 5.75 0.375 5.75 -3 8 C-2.67 6.02 -2.34 4.04 -2 2 C-1.34 2 -0.68 2 0 2 C0 1.34 0 0.68 0 0 Z " fill="#51C5D9" transform="translate(381,340)"/>
<path d="M0 0 C3.31012244 3.31012244 3.50351065 4.53159589 4 9 C3.01 9 2.02 9 1 9 C0.67 6.03 0.34 3.06 0 0 Z " fill="#2BBED4" transform="translate(99,330)"/>
<path d="M0 0 C1.65 0 3.3 0 5 0 C2.6875 2.5 2.6875 2.5 0 5 C-0.99 5 -1.98 5 -3 5 C-2.67 4.01 -2.34 3.02 -2 2 C-1.34 2 -0.68 2 0 2 C0 1.34 0 0.68 0 0 Z " fill="#D3F3FD" transform="translate(323,315)"/>
<path d="M0 0 C0.66 0 1.32 0 2 0 C2 0.99 2 1.98 2 3 C2.99 3.33 3.98 3.66 5 4 C5.33 5.65 5.66 7.3 6 9 C1.2 5.67692308 1.2 5.67692308 0.1875 2.25 C0.125625 1.5075 0.06375 0.765 0 0 Z " fill="#BEF0F7" transform="translate(146,291)"/>
<path d="M0 0 C0.66 0 1.32 0 2 0 C1.75 2.375 1.75 2.375 1 5 C-1.0625 6.3125 -1.0625 6.3125 -3 7 C-3 5.68 -3 4.36 -3 3 C-2.01 3 -1.02 3 0 3 C0 2.01 0 1.02 0 0 Z " fill="#3BC0D8" transform="translate(356,372)"/>
<path d="M0 0 C0.66 0 1.32 0 2 0 C4.09350689 3.4019487 4.17942163 6.05272412 4 10 C1.16625119 6.79663178 0.4794463 4.21912747 0 0 Z " fill="#9DC285" transform="translate(318,202)"/>
<path d="M0 0 C3.37503669 1.1858237 5.64722731 2.27573689 8 5 C6 6 6 6 3.4375 5.3125 C1 4 1 4 0.1875 1.875 C0.125625 1.25625 0.06375 0.6375 0 0 Z " fill="#1F9FD7" transform="translate(345,118)"/>
<path d="M0 0 C-2.55068845 2.35448165 -3.71017358 2.98327924 -7.25 3.1875 C-8.1575 3.125625 -9.065 3.06375 -10 3 C-6.88378718 -0.11621282 -4.21175599 -0.11383124 0 0 Z " fill="#1DB7D7" transform="translate(306,399)"/>
<path d="M0 0 C0.33 0.66 0.66 1.32 1 2 C1.99 1.67 2.98 1.34 4 1 C4.33 3.31 4.66 5.62 5 8 C2.5 5.6875 2.5 5.6875 0 3 C0 2.01 0 1.02 0 0 Z " fill="#5BC8DC" transform="translate(113,359)"/>
<path d="M0 0 C0.99 0 1.98 0 3 0 C3 1.32 3 2.64 3 4 C2.34 4 1.68 4 1 4 C1 4.66 1 5.32 1 6 C0.01 5.67 -0.98 5.34 -2 5 C-1.34 3.35 -0.68 1.7 0 0 Z " fill="#19BDDE" transform="translate(380,336)"/>
<path d="M0 0 C6.52307692 0.61538462 6.52307692 0.61538462 8.9375 2.5625 C9.288125 3.036875 9.63875 3.51125 10 4 C6.44219804 3.39009109 3.3171411 2.4216319 0 1 C0 0.67 0 0.34 0 0 Z " fill="#F4EBBE" transform="translate(310,246)"/>
<path d="M0 0 C3 2 3 2 3.6875 5.125 C3.8421875 6.548125 3.8421875 6.548125 4 8 C3.01 8 2.02 8 1 8 C0.67 5.36 0.34 2.72 0 0 Z " fill="#F6EDCC" transform="translate(261,222)"/>
<path d="M0 0 C0.78375 0.04125 1.5675 0.0825 2.375 0.125 C0.725 1.775 -0.925 3.425 -2.625 5.125 C-3.285 4.135 -3.945 3.145 -4.625 2.125 C-2.625 0.125 -2.625 0.125 0 0 Z " fill="#16A5D7" transform="translate(244.625,186.875)"/>
<path d="M0 0 C0.66 0.66 1.32 1.32 2 2 C1.75 4.5625 1.75 4.5625 1 7 C0.01 7.495 0.01 7.495 -1 8 C-0.67 5.36 -0.34 2.72 0 0 Z " fill="#17A4D9" transform="translate(98,170)"/>
</svg>
